<?xml version="1.0" encoding="UTF-8"?>
<svg id="_レイヤー_1" xmlns="http://www.w3.org/2000/svg" version="1.1" viewBox="0 0 512 512">
  <!-- Generator: Adobe Illustrator 29.0.1, SVG Export Plug-In . SVG Version: 2.1.0 Build 192)  -->
  <defs>
    <style>
      .st0 {
        fill: #fff;
        fill-rule: evenodd;
      }

      .st1 {
        fill: #ff8080;
      }
    </style>
  </defs>
  <rect class="st1" x="0" y="0" width="512" height="512" rx="60" ry="60"/>
  <g>
    <path class="st0" d="M432.9,132.5c-.9-.2-1.8-.3-2.7-.3H118.7l-10.7-57.2c-1.4-7.5-4.6-14.4-9.6-19.3-5-5-11.5-8.1-19.4-8.1H17.5c-5.5,0-10,4.6-10,10s4.6,10,10,10h61.5c2.1,0,3.8.9,5.2,2.2,2.1,2.1,3.5,5.3,4.2,8.7l16.5,88.8,23.9,128.3,1,5.3h0l8.9,47.9c1.4,7.5,4.7,14.4,9.7,19.3,5,5,11.5,8.1,19.3,8.1h254.4c5.5,0,10-4.6,10-10s-4.5-10.1-10-10.1h-254.4c-2.1,0-3.8-.8-5.2-2.1-2.1-2.1-3.5-5.3-4.1-8.8l-4.2-22.4,239.9-32.5c8.5-1.3,14.4-3.1,19.4-8,5-5,8.2-11.9,9.6-19.3l21.3-114.3c.1-.9.2-1.7.2-2.4,0-3.8-1.6-7.1-4.1-9.6s-4.8-3.6-7.8-4.1h.2ZM417.9,182.3h-44.2v-29.9h49.8l-5.6,29.9h0ZM230.6,202.3v29.9h-41.4v-29.9h41.4ZM189.2,182.3v-29.9h41.4v29.9h-41.4ZM250.7,202.3h41.5v29.9h-41.5v-29.9h0ZM169.2,232.3h-31.7l-5.6-29.9h37.3v29.9ZM169.2,252.3v48.4l-18.4,2.5h0l-2.1-11.1-7.4-39.8h28-.1ZM189.2,252.3h41.4v40l-41.4,5.6v-45.6h0ZM250.7,252.3h41.5v31.7l-41.5,5.6v-37.3h0ZM312.2,252.3h41.4v23.3l-41.4,5.6v-29h0ZM312.2,232.3v-29.9h41.4v29.9h-41.4ZM312.2,182.3v-29.9h41.4v29.9h-41.4ZM373.7,202.3h40.5l-5.6,29.9h-34.9v-29.9ZM292.2,152.3v29.9h-41.5v-29.9h41.5ZM169.2,152.3v29.9h-41.1l-5.6-29.9h46.7ZM399.4,268.1c-1.4,1.5-6,2.1-8,2.4l-17.7,2.4v-20.6h31.2l-1.3,7c-.6,3.1-1.9,6.6-4.1,8.8h-.1Z"/>
    <path class="st0" d="M404,402.8h0c-3.3-3.3-7.3-6-11.7-7.8-4.3-1.8-9-2.8-13.8-2.8s-9.5,1-13.8,2.8c-4.4,1.8-8.4,4.5-11.7,7.8-3.3,3.3-6,7.3-7.8,11.7-1.8,4.3-2.8,9-2.8,13.8s1,9.5,2.8,13.8h0c1.8,4.4,4.5,8.4,7.8,11.7h0c3.3,3.4,7.3,6,11.7,7.9,4.3,1.8,9,2.8,13.8,2.8s9.5-1,13.8-2.8h0c4.4-1.8,8.3-4.5,11.7-7.8h0c3.3-3.3,6-7.3,7.8-11.8,1.8-4.3,2.8-9,2.8-13.8s-1-9.5-2.8-13.8c-1.8-4.4-4.5-8.4-7.8-11.7h0Z"/>
    <path class="st0" d="M214.5,402.8c-3.3-3.3-7.3-6-11.7-7.8-4.3-1.8-9-2.8-13.8-2.8s-9.5,1-13.8,2.8c-4.4,1.8-8.4,4.5-11.7,7.8h0c-3.3,3.3-6,7.3-7.8,11.7-1.8,4.3-2.8,9-2.8,13.8s1,9.5,2.8,13.8h0c1.8,4.4,4.5,8.4,7.8,11.7h0c3.3,3.3,7.3,6,11.7,7.8h0c4.3,1.8,9,2.8,13.8,2.8s9.5-1,13.8-2.8c4.4-1.8,8.4-4.5,11.7-7.8h0c3.3-3.3,6-7.3,7.9-11.8,1.8-4.3,2.7-9,2.7-13.8s-.9-9.5-2.7-13.8c-1.8-4.4-4.6-8.4-7.9-11.7h0Z"/>
  </g>
</svg>