<?xml version="1.0" encoding="UTF-8"?>
<svg id="_レイヤー_1" xmlns="http://www.w3.org/2000/svg" version="1.1" viewBox="0 0 437.3 480">
  <!-- Generator: Adobe Illustrator 29.0.1, SVG Export Plug-In . SVG Version: 2.1.0 Build 192)  -->
  <defs>
    <style>
      .st0 {
        fill: #ff8080;
        fill-rule: evenodd;
      }

      .st1 {
        fill: #c45050;
      }
    </style>
  </defs>
  <path class="st0" d="M425.4,148c-.9-.2-1.8-.3-2.7-.3H111.2l-10.7-57.2c-1.4-7.5-4.6-14.4-9.6-19.3-5-5-11.5-8.1-19.4-8.1H10c-5.5,0-10,4.6-10,10s4.6,10,10,10h61.5c2.1,0,3.8.9,5.2,2.2,2.1,2.1,3.5,5.3,4.2,8.7l16.5,88.8,23.9,128.3,1,5.3h0l8.9,47.9c1.4,7.5,4.7,14.4,9.7,19.3,5,5,11.5,8.1,19.3,8.1h254.4c5.5,0,10-4.6,10-10s-4.5-10.1-10-10.1h-254.4c-2.1,0-3.8-.8-5.2-2.1-2.1-2.1-3.5-5.3-4.1-8.8l-4.2-22.4,239.9-32.5c8.5-1.3,14.4-3.1,19.4-8,5-5,8.2-11.9,9.6-19.3l21.3-114.3c.1-.9.2-1.7.2-2.4,0-3.8-1.6-7.1-4.1-9.6s-4.8-3.6-7.8-4.1h.2ZM410.4,197.8h-44.2v-29.9h49.8l-5.6,29.9h0ZM223.1,217.8v29.9h-41.4v-29.9h41.4ZM181.7,197.8v-29.9h41.4v29.9h-41.4ZM243.2,217.8h41.5v29.9h-41.5v-29.9h0ZM161.7,247.8h-31.7l-5.6-29.9h37.3v29.9ZM161.7,267.8v48.4l-18.4,2.5h0l-2.1-11.1-7.4-39.8h28-.1ZM181.7,267.8h41.4v40l-41.4,5.6v-45.6h0ZM243.2,267.8h41.5v31.7l-41.5,5.6v-37.3h0ZM304.7,267.8h41.4v23.3l-41.4,5.6v-29h0ZM304.7,247.8v-29.9h41.4v29.9h-41.4ZM304.7,197.8v-29.9h41.4v29.9h-41.4ZM366.2,217.8h40.5l-5.6,29.9h-34.9v-29.9ZM284.7,167.8v29.9h-41.5v-29.9h41.5ZM161.7,167.8v29.9h-41.1l-5.6-29.9h46.7ZM391.9,283.6c-1.4,1.5-6,2.1-8,2.4l-17.7,2.4v-20.6h31.2l-1.3,7c-.6,3.1-1.9,6.6-4.1,8.8h-.1Z"/>
  <path class="st0" d="M396.5,418.3h0c-3.3-3.3-7.3-6-11.7-7.8-4.3-1.8-9-2.8-13.8-2.8s-9.5,1-13.8,2.8c-4.4,1.8-8.4,4.5-11.7,7.8-3.3,3.3-6,7.3-7.8,11.7-1.8,4.3-2.8,9-2.8,13.8s1,9.5,2.8,13.8h0c1.8,4.4,4.5,8.4,7.8,11.7h0c3.3,3.4,7.3,6,11.7,7.9,4.3,1.8,9,2.8,13.8,2.8s9.5-1,13.8-2.8h0c4.4-1.8,8.3-4.5,11.7-7.8h0c3.3-3.3,6-7.3,7.8-11.8,1.8-4.3,2.8-9,2.8-13.8s-1-9.5-2.8-13.8c-1.8-4.4-4.5-8.4-7.8-11.7h0Z"/>
  <path class="st0" d="M207,418.3c-3.3-3.3-7.3-6-11.7-7.8-4.3-1.8-9-2.8-13.8-2.8s-9.5,1-13.8,2.8c-4.4,1.8-8.4,4.5-11.7,7.8h0c-3.3,3.3-6,7.3-7.8,11.7-1.8,4.3-2.8,9-2.8,13.8s1,9.5,2.8,13.8h0c1.8,4.4,4.5,8.4,7.8,11.7h0c3.3,3.3,7.3,6,11.7,7.8h0c4.3,1.8,9,2.8,13.8,2.8s9.5-1,13.8-2.8c4.4-1.8,8.4-4.5,11.7-7.8h0c3.3-3.3,6-7.3,7.9-11.8,1.8-4.3,2.7-9,2.7-13.8s-.9-9.5-2.7-13.8c-1.8-4.4-4.6-8.4-7.9-11.7h0Z"/>
  <path class="st1" d="M330.3,125.5c-1.6,0-3.3-.4-4.8-1.3-4.6-2.6-6.1-8.5-3.5-13l31.7-54.9c2.6-4.6,8.5-6.1,13-3.5,4.6,2.6,6.1,8.5,3.5,13l-31.7,54.9c-1.8,3.1-5,4.8-8.3,4.8h0Z"/>
  <path class="st1" d="M223.1,125.5c-3.3,0-6.5-1.7-8.3-4.8l-31.7-54.9c-2.6-4.6-1.1-10.4,3.5-13,4.6-2.6,10.4-1.1,13,3.5l31.7,54.9c2.6,4.6,1.1,10.4-3.5,13-1.5.9-3.1,1.3-4.8,1.3h.1Z"/>
  <path class="st1" d="M276.7,102.5c-5.3,0-9.5-4.3-9.5-9.5V29.5c0-5.3,4.3-9.5,9.5-9.5s9.5,4.3,9.5,9.5v63.4c0,5.3-4.3,9.5-9.5,9.5h0Z"/>
</svg>